<svg xmlns="http://www.w3.org/2000/svg" version="1.1" xmlns:xlink="http://www.w3.org/1999/xlink" xmlns:svgjs="http://svgjs.dev/svgjs" width="2000" height="535" viewBox="0 0 2000 535"><g transform="matrix(1,0,0,1,-1.2121212121212466,-1.1606158208001034)"><svg viewBox="0 0 396 106" data-background-color="#ffffff" preserveAspectRatio="xMidYMid meet" height="535" width="2000" xmlns="http://www.w3.org/2000/svg" xmlns:xlink="http://www.w3.org/1999/xlink"><g id="tight-bounds" transform="matrix(1,0,0,1,0.2400000000000091,0.2299537887940346)"><svg viewBox="0 0 395.52 105.54009242241192" height="105.54009242241192" width="395.52"><g><svg viewBox="0 0 629.6432970602566 168.01327812725435" height="105.54009242241192" width="395.52"><g><rect width="7.047578714919483" height="122.18042295071679" x="413.96915893957976" y="22.916427588268782" fill="#4f46e5" opacity="1" stroke-width="0" stroke="transparent" fill-opacity="1" class="rect-yte-0" data-fill-palette-color="primary" rx="1%" id="yte-0" data-palette-color="#4f46e5"></rect></g><g transform="matrix(1,0,0,1,0,23.220358988643696)"><svg viewBox="0 0 395.52 121.57256014996696" height="121.57256014996696" width="395.52"><g id="textblocktransform"><svg viewBox="0 0 395.52 121.57256014996696" height="121.57256014996696" width="395.52" id="textblock"><g><svg viewBox="0 0 395.52 78.1492355833706" height="78.1492355833706" width="395.52"><g transform="matrix(1,0,0,1,0,0)"><svg width="395.52" viewBox="2.6 -32.55 167.76000000000002 33.15" height="78.1492355833706" data-palette-color="#4f46e5"><path d="M14.45 0.58L14.45 0.58Q8.53 0.58 5.56-2.75 2.6-6.08 2.6-12.2L2.6-12.2 2.6-19.78Q2.6-25.9 5.55-29.21 8.5-32.52 14.4-32.52L14.4-32.52Q16.3-32.52 17.86-32.18 19.43-31.83 20.65-31.28 21.88-30.73 22.73-30.13L22.73-30.13 23.08-26.28Q21.6-27.33 19.61-28.11 17.63-28.9 14.95-28.9L14.95-28.9Q10.93-28.9 8.88-26.51 6.83-24.13 6.83-19.73L6.83-19.73 6.83-12.35Q6.83-7.98 8.9-5.56 10.98-3.15 15.1-3.15L15.1-3.15Q17.75-3.15 19.79-3.93 21.83-4.7 23.33-5.83L23.33-5.83 22.98-1.88Q22.13-1.28 20.88-0.7 19.63-0.13 18.01 0.23 16.4 0.58 14.45 0.58ZM33.35-31.95L33.35 0 29.2 0 29.2-31.95 33.35-31.95ZM49.84 0.58L49.84 0.58Q47.55 0.58 45.63 0.2 43.72-0.18 42.22-0.73 40.72-1.28 39.72-1.83L39.72-1.83 39.3-5.95Q41.22-4.8 43.83-3.94 46.45-3.08 49.52-3.08L49.52-3.08Q53.22-3.08 55-4.39 56.77-5.7 56.77-8.33L56.77-8.33 56.77-8.72Q56.77-10.45 56.07-11.55 55.37-12.65 53.71-13.4 52.05-14.15 49.2-14.8L49.2-14.8Q45.59-15.65 43.43-16.81 41.27-17.98 40.31-19.73 39.34-21.48 39.34-24.08L39.34-24.08 39.34-24.3Q39.34-28.23 41.92-30.36 44.5-32.5 49.72-32.5L49.72-32.5Q53.15-32.5 55.56-31.8 57.97-31.1 59.5-30.25L59.5-30.25 59.87-26.45Q58.09-27.5 55.73-28.24 53.37-28.98 50.32-28.98L50.32-28.98Q47.9-28.98 46.4-28.4 44.9-27.83 44.22-26.75 43.55-25.68 43.55-24.15L43.55-24.15 43.55-24.05Q43.55-22.5 44.21-21.4 44.87-20.3 46.53-19.5 48.2-18.7 51.27-17.95L51.27-17.95Q54.8-17.13 56.92-16.05 59.05-14.98 60.01-13.25 60.97-11.53 60.97-8.75L60.97-8.75 60.97-8.22Q60.97-3.9 58.18-1.66 55.4 0.58 49.84 0.58ZM78.17 0.6L78.17 0.6Q72.12 0.6 68.97-2.74 65.82-6.08 65.82-12.3L65.82-12.3 65.82-19.68Q65.82-25.88 68.97-29.21 72.12-32.55 78.17-32.55L78.17-32.55Q84.22-32.55 87.37-29.21 90.52-25.88 90.52-19.68L90.52-19.68 90.52-12.3Q90.52-6.08 87.37-2.74 84.22 0.6 78.17 0.6ZM78.17-2.88L78.17-2.88Q82.22-2.88 84.27-5.29 86.32-7.7 86.32-12.13L86.32-12.13 86.32-19.85Q86.32-24.28 84.27-26.68 82.22-29.08 78.17-29.08L78.17-29.08Q74.14-29.08 72.09-26.68 70.04-24.28 70.04-19.85L70.04-19.85 70.04-12.13Q70.04-7.7 72.09-5.29 74.14-2.88 78.17-2.88ZM104.31 0.55L104.31 0.55Q102.29 0.55 100.58 0.24 98.86-0.08 97.56-0.54 96.27-1 95.42-1.43L95.42-1.43 95.02-5.48Q96.69-4.53 98.99-3.81 101.29-3.1 103.99-3.1L103.99-3.1Q106.59-3.1 108.18-3.78 109.77-4.45 110.49-5.7 111.22-6.95 111.22-8.72L111.22-8.72 111.22-9.33Q111.22-11.13 110.55-12.3 109.89-13.48 108.39-14.06 106.89-14.65 104.37-14.68L104.37-14.68 99.09-14.78 99.09-18.05 104.44-18.15Q106.87-18.2 108.31-18.82 109.77-19.45 110.39-20.59 111.02-21.73 111.02-23.3L111.02-23.3 111.02-23.73Q111.02-26.3 109.48-27.64 107.94-28.98 104.29-28.98L104.29-28.98Q101.56-28.98 99.24-28.24 96.92-27.5 95.19-26.55L95.19-26.55 95.56-30.18Q97.04-31.08 99.4-31.79 101.77-32.5 104.97-32.5L104.97-32.5Q110.24-32.5 112.73-30.35 115.22-28.2 115.22-24.35L115.22-24.35 115.22-23.8Q115.22-21.88 114.58-20.4 113.94-18.93 112.59-18.01 111.24-17.1 109.06-16.8L109.06-16.8 109.04-16.23 108.94-16.68Q112.42-16.18 113.95-14.39 115.49-12.6 115.49-9.38L115.49-9.38 115.49-8.47Q115.49-4.25 112.78-1.85 110.06 0.55 104.31 0.55ZM131.71 0.6L131.71 0.6Q128.09 0.6 125.53-0.81 122.96-2.23 121.61-5.03 120.26-7.83 120.26-11.95L120.26-11.95 120.26-19.58Q120.26-25.73 123.3-29.11 126.34-32.5 132.26-32.5L132.26-32.5Q135.21-32.5 137.25-31.88 139.29-31.25 140.69-30.53L140.69-30.53 141.11-26.75Q140.04-27.38 138.85-27.86 137.66-28.35 136.22-28.63 134.79-28.9 132.91-28.9L132.91-28.9Q128.61-28.9 126.5-26.5 124.39-24.1 124.39-19.45L124.39-19.45 124.39-11.5Q124.39-8.63 125.26-6.7 126.14-4.78 127.79-3.83 129.44-2.88 131.79-2.88L131.79-2.88Q135.14-2.88 136.74-4.66 138.34-6.45 138.34-9.25L138.34-9.25 138.34-10.75Q138.34-12.73 137.73-14.14 137.11-15.55 135.76-16.32 134.41-17.1 132.24-17.1L132.24-17.1Q130.19-17.1 128.58-16.35 126.96-15.6 125.85-14.21 124.74-12.83 124.19-10.93L124.19-10.93 123.79-14.43 124.51-14.43Q125.04-16.13 126.15-17.49 127.26-18.85 129.06-19.64 130.86-20.43 133.41-20.43L133.41-20.43Q137.91-20.43 140.18-17.9 142.44-15.38 142.44-10.83L142.44-10.83 142.44-9.2Q142.44-4.78 139.74-2.09 137.04 0.6 131.71 0.6ZM158.89 0.6L158.89 0.6Q153.19 0.6 150.3-2.6 147.41-5.8 147.41-11.83L147.41-11.83 147.41-20.13Q147.41-26.15 150.29-29.35 153.16-32.55 158.89-32.55L158.89-32.55Q164.59-32.55 167.47-29.35 170.36-26.15 170.36-20.13L170.36-20.13 170.36-11.83Q170.36-5.8 167.47-2.6 164.59 0.6 158.89 0.6ZM158.89-2.88L158.89-2.88Q162.59-2.88 164.37-5.14 166.16-7.4 166.16-11.65L166.16-11.65 166.16-20.28Q166.16-24.55 164.37-26.81 162.59-29.08 158.89-29.08L158.89-29.08Q155.19-29.08 153.4-26.81 151.61-24.55 151.61-20.28L151.61-20.28 151.61-11.65Q151.61-7.4 153.4-5.14 155.19-2.88 158.89-2.88Z" opacity="1" transform="matrix(1,0,0,1,0,0)" fill="#4f46e5" class="wordmark-text-0" data-fill-palette-color="primary" id="text-0"></path></svg></g></svg></g><g transform="matrix(1,0,0,1,163.310208,96.5983945229504)"><svg viewBox="0 0 232.209792 24.974165627016557" height="24.974165627016557" width="232.209792"><g transform="matrix(1,0,0,1,0,0)"><svg width="232.209792" viewBox="1.25 -37.5 464.85 50" height="24.974165627016557" data-palette-color="#4f46e5"><path d="M11.9-2.95L11.9-2.95Q17.45-2.95 20.15-5.75L20.15-5.75Q21.7-7.35 21.7-9.55 21.7-11.75 20.63-13.18 19.55-14.6 17.85-15.38 16.15-16.15 14.08-16.73 12-17.3 9.93-17.95 7.85-18.6 6.15-19.5 4.45-20.4 3.38-22.05 2.3-23.7 2.3-26L2.3-26Q2.3-30 5.3-32.55 8.3-35.1 13.25-35.1 18.2-35.1 22.55-34.1L22.55-34.1 22.55-34.05 22.7-34.05 23.25-27.8 20.8-27.4 20.25-31.6Q17.45-32.1 14.08-32.1 10.7-32.1 8.2-30.63 5.7-29.15 5.7-26.45 5.7-23.75 7.7-22.35 9.7-20.95 12.55-20.23 15.4-19.5 18.25-18.6 21.1-17.7 23.1-15.5 25.1-13.3 25.1-9.7L25.1-9.7Q25.1-4.85 21.5-2.4 17.9 0.05 12.55 0.05L12.55 0.05Q5.8 0.05 1.25-3L1.25-3 1.3-8.3 3.75-8.55 3.85-4.75Q7.65-2.95 11.9-2.95ZM31.75-11.2L31.75-11.2Q31.75-6.75 34.3-4.73 36.85-2.7 40.25-2.7L40.25-2.7Q42.45-2.7 44.77-3.13 47.1-3.55 47.85-3.9L47.85-3.9 48.5-1.55Q47.35-0.8 44.72-0.3 42.1 0.2 39.92 0.2 37.75 0.2 36.02-0.25 34.3-0.7 32.5-1.85 30.7-3 29.65-5.45 28.6-7.9 28.6-11.45L28.6-11.45Q28.6-18.05 32-21.55L32-21.55Q35.55-25.2 40.25-25.2 44.95-25.2 47.42-22.6 49.9-20 49.9-15.3L49.9-15.3Q49.9-14.3 49.75-13.15L49.75-13.15 31.9-13.15Q31.75-12.1 31.75-11.2ZM46.9-15.65L46.9-15.65Q46.9-18.75 45.05-20.43 43.2-22.1 40.75-22.1L40.75-22.1Q37.4-22.1 35.2-20.08 33-18.05 32.25-15.1L32.25-15.1 46.9-15.1Q46.9-15.4 46.9-15.65ZM66.65-22.3L66.65-22.3Q62.4-22.3 59.77-19.48 57.15-16.65 57.15-11.55L57.15-11.55Q57.15-2.7 65.4-2.7L65.4-2.7Q68.59-2.7 70.75-3.23 72.9-3.75 73.09-3.9L73.09-3.9 73.8-1.55Q72.65-0.8 70-0.3 67.34 0.2 65.2 0.2 63.05 0.2 61.3-0.25 59.55-0.7 57.77-1.85 56-3 54.95-5.48 53.9-7.95 53.9-11.5L53.9-11.5Q53.9-18.05 57.25-21.4L57.25-21.4Q61-25.25 66.7-25.25L66.7-25.25Q68.5-25.25 70.52-24.78 72.55-24.3 73.65-23.3L73.65-23.3 73.65-16.75 71.2-16.4 70.95-21.65Q68.9-22.3 66.65-22.3ZM98.19 0L97.69-2.9Q93.14 0.15 89.09 0.15L89.09 0.15Q87.39 0.15 85.09-0.7L85.09-0.7Q83.59-1.25 82.69-2.78 81.79-4.3 81.79-6.6L81.79-6.6 81.79-22.5 78.29-22.5 78.29-25 85.04-25 85.04-7.6Q85.04-5.85 85.79-4.73 86.54-3.6 87.69-3.25L87.69-3.25Q89.59-2.65 90.74-2.75L90.74-2.75Q93.74-2.8 97.69-4.9L97.69-4.9 97.69-22.5 94.19-22.5 94.19-25 100.94-25 100.94-2.5 104.79-2.5 104.79 0 98.19 0ZM113.69-16.75L113.69-2.5 117.84-2.5 117.84 0 107.34 0 107.34-2.5 110.44-2.5 110.44-22.5 107.09-22.5 107.09-25 113.69-25 113.69-18.95Q117.64-24.75 121.44-24.85L121.44-24.85Q121.74-24.85 122.04-24.85L122.04-24.85 124.84-24.5 123.54-21.5Q122.59-21.95 121.09-21.95L121.09-21.95Q117.49-21.9 113.69-16.75L113.69-16.75ZM130.64-22.5L127.29-22.5 127.29-25 133.89-25 133.89-2.5 137.64-2.5 137.64 0 127.54 0 127.54-2.5 130.64-2.5 130.64-22.5ZM132.19-31.7Q131.19-31.7 130.64-32.33 130.09-32.95 130.09-33.98 130.09-35 130.66-35.63 131.24-36.25 132.24-36.25 133.24-36.25 133.86-35.63 134.49-35 134.49-33.93 134.49-32.85 133.84-32.27 133.19-31.7 132.19-31.7ZM142.89-22.5L139.54-22.5 139.54-25 146.14-25 146.14-22.2Q150.24-25 153.99-25.15L153.99-25.15Q157.64-25.15 159.54-23.7L159.54-23.7Q160.39-23.05 161.06-21.68 161.74-20.3 161.74-18.4L161.74-18.4 161.74-2.5 165.59-2.5 165.59 0 155.49 0 155.49-2.5 158.49-2.5 158.49-17.15Q158.49-22 152.79-22L152.79-22Q149.69-21.9 146.14-19.95L146.14-19.95 146.14-2.5 149.89-2.5 149.89 0 139.79 0 139.79-2.5 142.89-2.5 142.89-22.5ZM166.88 5.2L166.88 5.2Q166.88 0.7 172.23-2.7L172.23-2.7Q170.13-4.2 170.13-6.28 170.13-8.35 171.93-9.65L171.93-9.65Q168.23-11.45 168.23-16.95L168.23-16.95Q168.23-20.8 171.13-23 174.03-25.2 178.53-25.2L178.53-25.2Q179.98-25.2 181.48-24.95L181.48-24.95 190.88-25.2 190.78-23.3 185.33-23.3Q188.08-21.25 188.08-17.15 188.08-13.05 185.33-10.8 182.58-8.55 178.23-8.55L178.23-8.55Q175.43-8.55 173.58-9.05L173.58-9.05Q172.63-8.15 172.63-6.75 172.63-5.35 174.36-4.58 176.08-3.8 178.81-3.43 181.53-3.05 182.78-2.78 184.03-2.5 185.68-1.9 187.33-1.3 188.33-0.5L188.33-0.5Q190.68 1.45 190.68 4.7L190.68 4.7Q190.68 6.95 189.63 8.55 188.58 10.15 186.73 11L186.73 11Q183.33 12.5 178.63 12.5L178.63 12.5Q172.38 12.5 169.63 10.35 166.88 8.2 166.88 5.2ZM170.13 4.85L170.13 4.85Q170.13 6.9 172.13 8.25 174.13 9.6 178.23 9.6L178.23 9.6Q187.43 9.6 187.43 4.7L187.43 4.7Q187.43 2.25 185.23 1.2L185.23 1.2Q183.33 0.25 181.03-0.2L181.03-0.2Q176.13-0.9 173.98-1.75L173.98-1.75Q170.13 1.4 170.13 4.85ZM178.38-22.55Q175.28-22.55 173.38-21.13 171.48-19.7 171.48-16.88 171.48-14.05 172.96-12.63 174.43-11.2 177.68-11.2 180.93-11.2 182.81-12.83 184.68-14.45 184.68-17.25L184.68-17.25Q184.68-22.55 178.38-22.55L178.38-22.55ZM213.23-11.2L213.23-11.2Q213.23-6.75 215.78-4.73 218.33-2.7 221.73-2.7L221.73-2.7Q223.93-2.7 226.25-3.13 228.58-3.55 229.33-3.9L229.33-3.9 229.98-1.55Q228.83-0.8 226.2-0.3 223.58 0.2 221.4 0.2 219.23 0.2 217.5-0.25 215.78-0.7 213.98-1.85 212.18-3 211.13-5.45 210.08-7.9 210.08-11.45L210.08-11.45Q210.08-18.05 213.48-21.55L213.48-21.55Q217.03-25.2 221.73-25.2 226.43-25.2 228.9-22.6 231.38-20 231.38-15.3L231.38-15.3Q231.38-14.3 231.23-13.15L231.23-13.15 213.38-13.15Q213.23-12.1 213.23-11.2ZM228.38-15.65L228.38-15.65Q228.38-18.75 226.53-20.43 224.68-22.1 222.23-22.1L222.23-22.1Q218.88-22.1 216.68-20.08 214.48-18.05 213.73-15.1L213.73-15.1 228.38-15.1Q228.38-15.4 228.38-15.65ZM253.63-22.5L250.83-22.5 250.83-25 260.03-25 260.03-22.5 257.08-22.5 248.03 0 245.03 0 236.68-22.5 233.28-22.5 233.28-25 243.83-25 243.83-22.5 240.33-22.5 246.68-3.85 253.63-22.5ZM264.12-11.2L264.12-11.2Q264.12-6.75 266.67-4.73 269.22-2.7 272.62-2.7L272.62-2.7Q274.82-2.7 277.15-3.13 279.47-3.55 280.22-3.9L280.22-3.9 280.87-1.55Q279.72-0.8 277.1-0.3 274.47 0.2 272.3 0.2 270.12 0.2 268.4-0.25 266.67-0.7 264.87-1.85 263.07-3 262.02-5.45 260.97-7.9 260.97-11.45L260.97-11.45Q260.97-18.05 264.37-21.55L264.37-21.55Q267.92-25.2 272.62-25.2 277.32-25.2 279.8-22.6 282.27-20 282.27-15.3L282.27-15.3Q282.27-14.3 282.12-13.15L282.12-13.15 264.27-13.15Q264.12-12.1 264.12-11.2ZM279.27-15.65L279.27-15.65Q279.27-18.75 277.42-20.43 275.57-22.1 273.12-22.1L273.12-22.1Q269.77-22.1 267.57-20.08 265.37-18.05 264.62-15.1L264.62-15.1 279.27-15.1Q279.27-15.4 279.27-15.65ZM292.07-16.75L292.07-2.5 296.22-2.5 296.22 0 285.72 0 285.72-2.5 288.82-2.5 288.82-22.5 285.47-22.5 285.47-25 292.07-25 292.07-18.95Q296.02-24.75 299.82-24.85L299.82-24.85Q300.12-24.85 300.42-24.85L300.42-24.85 303.22-24.5 301.92-21.5Q300.97-21.95 299.47-21.95L299.47-21.95Q295.87-21.9 292.07-16.75L292.07-16.75ZM328.02-22.5L325.27-22.5 325.27-25 334.47-25 334.47-22.5 331.47-22.5 321.52 0 319.87 9.95 324.07 9.95 324.07 12.45 313.52 12.45 313.52 9.95 316.62 9.95 318.17 0 317.32 0 309.22-22.5 305.82-22.5 305.82-25 316.37-25 316.37-22.5 312.92-22.5 319.52-2.35 328.02-22.5ZM360.51 0.2L360.51 0.2Q353.86 0.2 353.46-5.05L353.46-5.05Q353.41-5.4 353.41-5.75L353.41-5.75Q353.41-9.95 358.46-11.35L358.46-11.35Q361.26-12.05 369.26-12.95L369.26-12.95 369.26-16.8Q369.26-22.25 363.56-22.25L363.56-22.25Q359.46-22.2 354.86-20.35L354.86-20.35 354.01-22.5 354.51-22.7Q358.41-24.4 360.46-24.75 362.51-25.1 363.46-25.13 364.41-25.15 365.29-25.1 366.16-25.05 367.56-24.65 368.96-24.25 369.99-23.53 371.01-22.8 371.76-21.35 372.51-19.9 372.51-17.9L372.51-17.9 372.51-2.5 376.36-2.5 376.36 0 369.76 0 369.26-1.9Q364.76 0.2 360.51 0.2ZM361.41-2.1L361.41-2.1Q365.21-2.1 369.26-3.8L369.26-3.8 369.26-10.95Q361.76-10.7 359.56-9.95L359.56-9.95Q357.86-9.5 357.16-8.33 356.46-7.15 356.46-6.45 356.46-5.75 356.46-5.5L356.46-5.5Q356.61-3.7 358.01-2.9 359.41-2.1 361.41-2.1ZM381.71-22.5L378.36-22.5 378.36-25 384.96-25 384.96-22.2Q389.06-25 392.81-25.15L392.81-25.15Q396.46-25.15 398.36-23.7L398.36-23.7Q399.21-23.05 399.88-21.68 400.56-20.3 400.56-18.4L400.56-18.4 400.56-2.5 404.41-2.5 404.41 0 394.31 0 394.31-2.5 397.31-2.5 397.31-17.15Q397.31-22 391.61-22L391.61-22Q388.51-21.9 384.96-19.95L384.96-19.95 384.96-2.5 388.71-2.5 388.71 0 378.61 0 378.61-2.5 381.71-2.5 381.71-22.5ZM405.71 5.2L405.71 5.2Q405.71 0.7 411.06-2.7L411.06-2.7Q408.96-4.2 408.96-6.28 408.96-8.35 410.76-9.65L410.76-9.65Q407.06-11.45 407.06-16.95L407.06-16.95Q407.06-20.8 409.96-23 412.86-25.2 417.36-25.2L417.36-25.2Q418.81-25.2 420.31-24.95L420.31-24.95 429.71-25.2 429.61-23.3 424.16-23.3Q426.91-21.25 426.91-17.15 426.91-13.05 424.16-10.8 421.41-8.55 417.06-8.55L417.06-8.55Q414.26-8.55 412.41-9.05L412.41-9.05Q411.46-8.15 411.46-6.75 411.46-5.35 413.18-4.58 414.91-3.8 417.63-3.43 420.36-3.05 421.61-2.78 422.86-2.5 424.51-1.9 426.16-1.3 427.16-0.5L427.16-0.5Q429.51 1.45 429.51 4.7L429.51 4.7Q429.51 6.95 428.46 8.55 427.41 10.15 425.56 11L425.56 11Q422.16 12.5 417.46 12.5L417.46 12.5Q411.21 12.5 408.46 10.35 405.71 8.2 405.71 5.2ZM408.96 4.85L408.96 4.85Q408.96 6.9 410.96 8.25 412.96 9.6 417.06 9.6L417.06 9.6Q426.26 9.6 426.26 4.7L426.26 4.7Q426.26 2.25 424.06 1.2L424.06 1.2Q422.16 0.25 419.86-0.2L419.86-0.2Q414.96-0.9 412.81-1.75L412.81-1.75Q408.96 1.4 408.96 4.85ZM417.21-22.55Q414.11-22.55 412.21-21.13 410.31-19.7 410.31-16.88 410.31-14.05 411.78-12.63 413.26-11.2 416.51-11.2 419.76-11.2 421.63-12.83 423.51-14.45 423.51-17.25L423.51-17.25Q423.51-22.55 417.21-22.55L417.21-22.55ZM436.06-35L432.71-35 432.71-37.5 439.31-37.5 439.31-2.5 443.06-2.5 443.06 0 432.96 0 432.96-2.5 436.06-2.5 436.06-35ZM447.95-11.2L447.95-11.2Q447.95-6.75 450.5-4.73 453.05-2.7 456.45-2.7L456.45-2.7Q458.65-2.7 460.98-3.13 463.3-3.55 464.05-3.9L464.05-3.9 464.7-1.55Q463.55-0.8 460.93-0.3 458.3 0.2 456.13 0.2 453.95 0.2 452.23-0.25 450.5-0.7 448.7-1.85 446.9-3 445.85-5.45 444.8-7.9 444.8-11.45L444.8-11.45Q444.8-18.05 448.2-21.55L448.2-21.55Q451.75-25.2 456.45-25.2 461.15-25.2 463.63-22.6 466.1-20 466.1-15.3L466.1-15.3Q466.1-14.3 465.95-13.15L465.95-13.15 448.1-13.15Q447.95-12.1 447.95-11.2ZM463.1-15.65L463.1-15.65Q463.1-18.75 461.25-20.43 459.4-22.1 456.95-22.1L456.95-22.1Q453.6-22.1 451.4-20.08 449.2-18.05 448.45-15.1L448.45-15.1 463.1-15.1Q463.1-15.4 463.1-15.65Z" opacity="1" transform="matrix(1,0,0,1,0,0)" fill="#4f46e5" class="slogan-text-1" data-fill-palette-color="secondary" id="text-1"></path></svg></g></svg></g></svg></g></svg></g><g transform="matrix(1,0,0,1,439.465896594079,0)"><svg viewBox="0 0 190.1774004661775 168.01327812725435" height="168.01327812725435" width="190.1774004661775"><g><svg xmlns="http://www.w3.org/2000/svg" xmlns:xlink="http://www.w3.org/1999/xlink" version="1.1" x="0" y="0" viewBox="6.160105572808999 11.268 87.68502591733808 77.46582196902685" enable-background="new 0 0 100 100" xml:space="preserve" height="168.01327812725435" width="190.1774004661775" class="icon-icon-0" data-fill-palette-color="accent" id="icon-0"><g fill="#4f46e5" data-fill-palette-color="accent"><path d="M44.846 19.268C45.23 19.268 45.614 19.122 45.907 18.829L48.346 16.39V30.269A1.5 1.5 0 1 0 51.346 30.269V16.389L53.785 18.828C54.078 19.121 54.462 19.267 54.846 19.267S55.614 19.121 55.907 18.828A1.5 1.5 0 0 0 55.907 16.707L50.909 11.709A1.5 1.5 0 0 0 50.416 11.381L50.394 11.374C50.224 11.307 50.04 11.268 49.846 11.268S49.468 11.308 49.298 11.374L49.276 11.381A1.5 1.5 0 0 0 48.783 11.709L43.785 16.707A1.5 1.5 0 0 0 44.846 19.268" fill="#4f46e5" data-fill-palette-color="accent"></path><polygon points="50,36.823 30.629,46.508 49.836,56.086 68.919,46.282  " fill="#4f46e5" data-fill-palette-color="accent"></polygon><polygon points="28.5,74.427 48.346,84.35 48.346,58.696 28.5,48.799  " fill="#4f46e5" data-fill-palette-color="accent"></polygon><polygon points="51.346,84.504 71.5,74.427 71.5,48.329 51.346,58.684  " fill="#4f46e5" data-fill-palette-color="accent"></polygon><path d="M21.648 76.439L9.938 82.593 10.85 79.006A1.5 1.5 0 1 0 7.943 78.266L6.201 85.118C6.193 85.149 6.193 85.18 6.187 85.213 6.177 85.266 6.167 85.318 6.163 85.373 6.159 85.421 6.16 85.468 6.161 85.516 6.161 85.565 6.163 85.614 6.168 85.663 6.174 85.713 6.185 85.762 6.195 85.81 6.205 85.856 6.215 85.902 6.23 85.947 6.247 85.999 6.269 86.048 6.291 86.097 6.304 86.126 6.312 86.157 6.327 86.186 6.332 86.195 6.34 86.202 6.345 86.21 6.353 86.224 6.357 86.24 6.366 86.254 6.421 86.346 6.487 86.43 6.56 86.508 6.579 86.529 6.6 86.544 6.619 86.563A1.5 1.5 0 0 0 7.147 86.892C7.173 86.902 7.199 86.913 7.226 86.92 7.241 86.925 7.254 86.932 7.268 86.936L7.286 86.943 14.14 88.687A1.5 1.5 0 0 0 14.881 85.779L11.815 84.999 23.046 79.097A1.5 1.5 0 1 0 21.648 76.439" fill="#4f46e5" data-fill-palette-color="accent"></path><path d="M93.845 85.419C93.844 85.4 93.838 85.383 93.837 85.365 93.832 85.313 93.823 85.264 93.815 85.214 93.809 85.183 93.808 85.151 93.8 85.118L92.058 78.266A1.5 1.5 0 0 0 89.15 79.006L90.071 82.629 78.033 76.433A1.504 1.504 0 0 0 76.012 77.08 1.5 1.5 0 0 0 76.659 79.101L88.139 85.01 85.121 85.778A1.5 1.5 0 0 0 85.861 88.686L92.715 86.942 92.735 86.935 92.78 86.918A1.5 1.5 0 0 0 93.399 86.548C93.414 86.533 93.43 86.522 93.444 86.506 93.529 86.414 93.6 86.311 93.66 86.201 93.666 86.191 93.675 86.183 93.68 86.174 93.694 86.148 93.701 86.119 93.712 86.092A2 2 0 0 0 93.773 85.939C93.787 85.895 93.796 85.85 93.806 85.805 93.817 85.755 93.827 85.706 93.832 85.656 93.838 85.607 93.839 85.559 93.84 85.511 93.841 85.48 93.846 85.45 93.845 85.419" fill="#4f46e5" data-fill-palette-color="accent"></path></g></svg></g></svg></g></svg></g><defs></defs></svg><rect width="395.52" height="105.54009242241192" fill="none" stroke="none" visibility="hidden"></rect></g></svg></g></svg>
